<svg id="Group_7377" data-name="Group 7377" xmlns="http://www.w3.org/2000/svg" width="48.628" height="57.519" viewBox="0 0 48.628 57.519">
  <path id="Path_2148" data-name="Path 2148" d="M47.058,57.519H41.5c-12.159,0-22.015-12.876-22.015-28.76S29.339,0,41.5,0h4.6Z" transform="translate(-19.482)" fill="#e4af18"/>
  <path id="Path_2149" data-name="Path 2149" d="M87.044,4.008H79.557a18.727,18.727,0,0,0-3.672,1.685h7.541A18.8,18.8,0,0,1,87.044,4.008Z" transform="translate(-63.015 -3.093)" fill="#c49214"/>
  <path id="Path_2150" data-name="Path 2150" d="M61.193,23.678H53.651a24.447,24.447,0,0,0-1.788,1.869H59.4A24.574,24.574,0,0,1,61.193,23.678Z" transform="translate(-44.474 -18.275)" fill="#c49214"/>
  <path id="Path_2151" data-name="Path 2151" d="M44.116,48.244H36.574c-.364.6-.711,1.226-1.037,1.869h7.541C43.4,49.47,43.752,48.848,44.116,48.244Z" transform="translate(-31.873 -37.235)" fill="#c49214"/>
  <path id="Path_2152" data-name="Path 2152" d="M34,72.81H26.457q-.328.917-.606,1.869h7.541Q33.672,73.727,34,72.81Z" transform="translate(-24.398 -56.196)" fill="#c49214"/>
  <path id="Path_2153" data-name="Path 2153" d="M28.6,97.375H21.056c-.11.616-.206,1.238-.285,1.869h7.541C28.391,98.613,28.488,97.992,28.6,97.375Z" transform="translate(-20.477 -75.156)" fill="#c49214"/>
  <path id="Path_2154" data-name="Path 2154" d="M27.024,122.876c0-.313.01-.623.018-.934H19.5c-.008.311-.019.621-.019.934s.01.623.018.934h7.541C27.035,123.5,27.024,123.189,27.024,122.876Z" transform="translate(-19.482 -94.116)" fill="#c49214"/>
  <path id="Path_2155" data-name="Path 2155" d="M28.312,146.507H20.771c.079.63.175,1.253.285,1.869H28.6C28.488,147.76,28.391,147.138,28.312,146.507Z" transform="translate(-20.477 -113.076)" fill="#c49214"/>
  <path id="Path_2156" data-name="Path 2156" d="M33.393,171.073H25.851q.279.951.606,1.869H34Q33.671,172.024,33.393,171.073Z" transform="translate(-24.398 -132.037)" fill="#c49214"/>
  <path id="Path_2157" data-name="Path 2157" d="M43.078,195.639H35.537c.327.642.674,1.264,1.037,1.869h7.542C43.752,196.9,43.4,196.281,43.078,195.639Z" transform="translate(-31.873 -150.997)" fill="#c49214"/>
  <path id="Path_2158" data-name="Path 2158" d="M59.407,220.2H51.865a24.31,24.31,0,0,0,1.788,1.869H61.2A24.317,24.317,0,0,1,59.407,220.2Z" transform="translate(-44.476 -169.957)" fill="#c49214"/>
  <path id="Path_2159" data-name="Path 2159" d="M83.016,239.62l-7.134.242a18.726,18.726,0,0,0,3.719,1.7h7.487A18.911,18.911,0,0,1,83.016,239.62Z" transform="translate(-63.012 -184.942)" fill="#c49214"/>
  <ellipse id="Ellipse_71" data-name="Ellipse 71" cx="22.015" cy="28.76" rx="22.015" ry="28.76" transform="translate(4.598)" fill="#ffd949"/>
  <ellipse id="Ellipse_72" data-name="Ellipse 72" cx="17.123" cy="22.369" rx="17.123" ry="22.369" transform="translate(9.487 6.391)" fill="#e4af18"/>
  <path id="Path_2160" data-name="Path 2160" d="M118.575,70.641c-.046-4.288-3.334-7.4-7.329-6.932l-2.9.338a3.823,3.823,0,0,1-4.211-3.984,4.931,4.931,0,0,1,4.115-4.955l5.68-.663a1.822,1.822,0,0,0,1.523-1.834,1.413,1.413,0,0,0-1.559-1.474l-2.69.314L111.18,48.9a1.413,1.413,0,0,0-1.559-1.474,1.822,1.822,0,0,0-1.523,1.834l.027,2.553a8.59,8.59,0,0,0-7.068,8.607c.046,4.289,3.334,7.4,7.329,6.932l2.9-.338A3.823,3.823,0,0,1,115.494,71a4.931,4.931,0,0,1-4.115,4.955l-5.68.663a1.822,1.822,0,0,0-1.523,1.834,1.413,1.413,0,0,0,1.559,1.474l2.69-.314.028,2.536a1.413,1.413,0,0,0,1.559,1.474,1.822,1.822,0,0,0,1.523-1.834l-.028-2.541A8.589,8.589,0,0,0,118.575,70.641Z" transform="translate(-82.442 -36.598)" fill="#ffd949"/>
</svg>
